<svg width="26" height="27" viewBox="0 0 26 27" fill="none" xmlns="http://www.w3.org/2000/svg">
<path d="M13 0.25L12.187 1.438C12.187 1.438 11.648 2.191 11.125 3.094C10.863 3.547 10.617 4.02 10.406 4.5C10.196 4.98 10 5.422 10 6C10 7.645 11.355 9 13 9C14.645 9 16 7.645 16 6C16 5.422 15.805 4.98 15.594 4.5C15.383 4.02 15.137 3.547 14.875 3.094C14.352 2.191 13.812 1.437 13.812 1.437L13 0.25ZM13 9H10V13H4.00001C1.79001 13 1.3105e-05 14.79 1.3105e-05 17C-0.00248857 17.9778 0.353253 18.9227 1.00001 19.656V27H25V19.656C25.6468 18.9227 26.0025 17.9778 26 17C26 14.79 24.21 13 22 13H16V9H13ZM13 3.875C13.066 3.985 13.059 3.977 13.125 4.094C13.363 4.504 13.617 4.941 13.781 5.312C13.945 5.684 14 6.027 14 6C14 6.555 13.555 7 13 7C12.445 7 12 6.555 12 6C12 6.027 12.055 5.684 12.219 5.312C12.383 4.942 12.637 4.504 12.875 4.094C12.941 3.977 12.934 3.984 13 3.875ZM12 11H14V13H12V11ZM4.00001 15H22C23.191 15 24 15.809 24 17C24 18.191 23.191 19 22 19C20.809 19 20 18.191 20 17H18C18 18.191 17.191 19 16 19C14.809 19 14 18.191 14 17H12C12 18.191 11.191 19 10 19C8.80901 19 8.00001 18.191 8.00001 17H6.00001C6.00001 18.191 5.19101 19 4.00001 19C2.80901 19 2.00001 18.191 2.00001 17C2.00001 15.809 2.80901 15 4.00001 15ZM7.00001 19.656C7.37591 20.0803 7.83788 20.4196 8.35517 20.6513C8.87246 20.8831 9.43319 21.0019 10 21C10.5668 21.0019 11.1276 20.8831 11.6449 20.6513C12.1621 20.4196 12.6241 20.0803 13 19.656C13.3759 20.0803 13.8379 20.4196 14.3552 20.6513C14.8725 20.8831 15.4332 21.0019 16 21C16.5668 21.0019 17.1276 20.8831 17.6449 20.6513C18.1621 20.4196 18.6241 20.0803 19 19.656C19.3759 20.0803 19.8379 20.4196 20.3552 20.6513C20.8725 20.8831 21.4332 21.0019 22 21C22.348 21 22.68 20.926 23 20.844V25H3.00001V20.844C3.32001 20.926 3.65201 21 4.00001 21C4.56684 21.0019 5.12757 20.8831 5.64486 20.6513C6.16215 20.4196 6.62412 20.0803 7.00001 19.656Z" fill="#0A81FF"/>
</svg>
