<svg width="21" height="21" viewBox="0 0 21 21" fill="none" xmlns="http://www.w3.org/2000/svg">
<path fill-rule="evenodd" clip-rule="evenodd" d="M16.6875 19.5C17.4334 19.5 18.1488 19.2037 18.6762 18.6762C19.2037 18.1488 19.5 17.4334 19.5 16.6875C19.5 15.9416 19.2037 15.2262 18.6762 14.6988C18.1488 14.1713 17.4334 13.875 16.6875 13.875C15.9416 13.875 15.2262 14.1713 14.6988 14.6988C14.1713 15.2262 13.875 15.9416 13.875 16.6875C13.875 17.4334 14.1713 18.1488 14.6988 18.6762C15.2262 19.2037 15.9416 19.5 16.6875 19.5ZM16.6875 20.625C17.7318 20.625 18.7333 20.2102 19.4717 19.4717C20.2102 18.7333 20.625 17.7318 20.625 16.6875C20.625 15.6432 20.2102 14.6417 19.4717 13.9033C18.7333 13.1648 17.7318 12.75 16.6875 12.75C15.6432 12.75 14.6417 13.1648 13.9033 13.9033C13.1648 14.6417 12.75 15.6432 12.75 16.6875C12.75 17.7318 13.1648 18.7333 13.9033 19.4717C14.6417 20.2102 15.6432 20.625 16.6875 20.625Z" fill="#0A81FF"/>
<path fill-rule="evenodd" clip-rule="evenodd" d="M16.6875 14.7188C16.8367 14.7188 16.9798 14.778 17.0852 14.8835C17.1907 14.989 17.25 15.1321 17.25 15.2812V16.4546L17.6477 16.8523C17.7502 16.9584 17.8068 17.1005 17.8056 17.248C17.8043 17.3955 17.7451 17.5365 17.6408 17.6408C17.5365 17.7451 17.3955 17.8043 17.248 17.8056C17.1005 17.8068 16.9584 17.7502 16.8523 17.6477L16.125 16.9204V15.2812C16.125 15.1321 16.1843 14.989 16.2898 14.8835C16.3952 14.778 16.5383 14.7188 16.6875 14.7188ZM4.875 9.9375H3.75V11.0625H4.875V9.9375ZM3.75 8.8125C3.45163 8.8125 3.16548 8.93103 2.95451 9.14201C2.74353 9.35298 2.625 9.63913 2.625 9.9375V11.0625C2.625 11.3609 2.74353 11.647 2.95451 11.858C3.16548 12.069 3.45163 12.1875 3.75 12.1875H4.875C5.17337 12.1875 5.45952 12.069 5.6705 11.858C5.88147 11.647 6 11.3609 6 11.0625V9.9375C6 9.63913 5.88147 9.35298 5.6705 9.14201C5.45952 8.93103 5.17337 8.8125 4.875 8.8125H3.75ZM9.375 9.9375H8.25V11.0625H9.375V9.9375ZM8.25 8.8125C7.95163 8.8125 7.66548 8.93103 7.4545 9.14201C7.24353 9.35298 7.125 9.63913 7.125 9.9375V11.0625C7.125 11.3609 7.24353 11.647 7.4545 11.858C7.66548 12.069 7.95163 12.1875 8.25 12.1875H9.375C9.67337 12.1875 9.95952 12.069 10.1705 11.858C10.3815 11.647 10.5 11.3609 10.5 11.0625V9.9375C10.5 9.63913 10.3815 9.35298 10.1705 9.14201C9.95952 8.93103 9.67337 8.8125 9.375 8.8125H8.25ZM13.875 9.9375H12.75V11.0625H13.875V9.9375ZM12.75 8.8125C12.4516 8.8125 12.1655 8.93103 11.9545 9.14201C11.7435 9.35298 11.625 9.63913 11.625 9.9375V11.0625C11.625 11.3609 11.7435 11.647 11.9545 11.858C12.1655 12.069 12.4516 12.1875 12.75 12.1875H13.875C14.1734 12.1875 14.4595 12.069 14.6705 11.858C14.8815 11.647 15 11.3609 15 11.0625V9.9375C15 9.63913 14.8815 9.35298 14.6705 9.14201C14.4595 8.93103 14.1734 8.8125 13.875 8.8125H12.75ZM4.875 14.4375H3.75V15.5625H4.875V14.4375ZM3.75 13.3125C3.45163 13.3125 3.16548 13.431 2.95451 13.642C2.74353 13.853 2.625 14.1391 2.625 14.4375V15.5625C2.625 15.8609 2.74353 16.147 2.95451 16.358C3.16548 16.569 3.45163 16.6875 3.75 16.6875H4.875C5.17337 16.6875 5.45952 16.569 5.6705 16.358C5.88147 16.147 6 15.8609 6 15.5625V14.4375C6 14.1391 5.88147 13.853 5.6705 13.642C5.45952 13.431 5.17337 13.3125 4.875 13.3125H3.75ZM9.375 14.4375H8.25V15.5625H9.375V14.4375ZM8.25 13.3125C7.95163 13.3125 7.66548 13.431 7.4545 13.642C7.24353 13.853 7.125 14.1391 7.125 14.4375V15.5625C7.125 15.8609 7.24353 16.147 7.4545 16.358C7.66548 16.569 7.95163 16.6875 8.25 16.6875H9.375C9.67337 16.6875 9.95952 16.569 10.1705 16.358C10.3815 16.147 10.5 15.8609 10.5 15.5625V14.4375C10.5 14.1391 10.3815 13.853 10.1705 13.642C9.95952 13.431 9.67337 13.3125 9.375 13.3125H8.25Z" fill="#0A81FF"/>
<path fill-rule="evenodd" clip-rule="evenodd" d="M1.5 3.75C1.5 3.60082 1.55926 3.45774 1.66475 3.35225C1.77024 3.24676 1.91332 3.1875 2.0625 3.1875H4.875V2.0625H2.0625C1.61495 2.0625 1.18572 2.24029 0.869257 2.55676C0.55279 2.87322 0.375 3.30245 0.375 3.75V17.25C0.375 17.6976 0.55279 18.1268 0.869257 18.4432C1.18572 18.7597 1.61495 18.9375 2.0625 18.9375H13.4559C13.2161 18.5939 13.0328 18.2141 12.9131 17.8125H2.0625C1.91332 17.8125 1.77024 17.7532 1.66475 17.6477C1.55926 17.5423 1.5 17.3992 1.5 17.25V3.75ZM16.125 12.7894C16.4981 12.736 16.8769 12.736 17.25 12.7894V3.75C17.25 3.30245 17.0722 2.87322 16.7557 2.55676C16.4393 2.24029 16.0101 2.0625 15.5625 2.0625H13.875V3.1875H15.5625C15.7117 3.1875 15.8548 3.24676 15.9602 3.35225C16.0657 3.45774 16.125 3.60082 16.125 3.75V12.7894ZM6 3.1875H11.9417V2.0625H6V3.1875Z" fill="#0A81FF"/>
<path fill-rule="evenodd" clip-rule="evenodd" d="M12.75 2.0625H6V3.75C6 3.89918 5.94074 4.04226 5.83525 4.14775C5.72976 4.25324 5.58668 4.3125 5.4375 4.3125C5.28832 4.3125 5.14524 4.25324 5.03975 4.14775C4.93426 4.04226 4.875 3.89918 4.875 3.75V2.0625H2.0625C1.76413 2.0625 1.47798 2.18103 1.267 2.39201C1.05603 2.60298 0.9375 2.88913 0.9375 3.1875V6C0.9375 6.29837 1.05603 6.58452 1.267 6.7955C1.47798 7.00647 1.76413 7.125 2.0625 7.125H15.5625C15.8609 7.125 16.147 7.00647 16.358 6.7955C16.569 6.58452 16.6875 6.29837 16.6875 6V3.1875C16.6875 2.88913 16.569 2.60298 16.358 2.39201C16.147 2.18103 15.8609 2.0625 15.5625 2.0625H13.875V3.75C13.875 3.89918 13.8157 4.04226 13.7102 4.14775C13.6048 4.25324 13.4617 4.3125 13.3125 4.3125C13.1633 4.3125 13.0202 4.25324 12.9148 4.14775C12.8093 4.04226 12.75 3.89918 12.75 3.75V2.0625Z" fill="#0A81FF"/>
<path fill-rule="evenodd" clip-rule="evenodd" d="M17.25 7.125H1.5V6H17.25V7.125Z" fill="#0A81FF"/>
<path d="M3.75 0.9375C3.75 0.788316 3.80926 0.645242 3.91475 0.539753C4.02024 0.434263 4.16332 0.375 4.3125 0.375C4.46168 0.375 4.60476 0.434263 4.71025 0.539753C4.81574 0.645242 4.875 0.788316 4.875 0.9375V3.1875C4.875 3.33668 4.81574 3.47976 4.71025 3.58525C4.60476 3.69074 4.46168 3.75 4.3125 3.75C4.16332 3.75 4.02024 3.69074 3.91475 3.58525C3.80926 3.47976 3.75 3.33668 3.75 3.1875V0.9375ZM11.625 0.9375C11.625 0.788316 11.6843 0.645242 11.7898 0.539753C11.8952 0.434263 12.0383 0.375 12.1875 0.375C12.3367 0.375 12.4798 0.434263 12.5852 0.539753C12.6907 0.645242 12.75 0.788316 12.75 0.9375V3.1875C12.75 3.33668 12.6907 3.47976 12.5852 3.58525C12.4798 3.69074 12.3367 3.75 12.1875 3.75C12.0383 3.75 11.8952 3.69074 11.7898 3.58525C11.6843 3.47976 11.625 3.33668 11.625 3.1875V0.9375Z" fill="#0A81FF"/>
</svg>
