<svg width="21" height="21" viewBox="0 0 21 21" fill="none" xmlns="http://www.w3.org/2000/svg">
<path d="M2.121 1.59075C1.98037 1.59075 1.8455 1.64662 1.74606 1.74606C1.64662 1.8455 1.59075 1.98037 1.59075 2.121V7.4235C1.59075 7.7175 1.82805 7.9548 2.121 7.9548H7.4235C7.49322 7.95494 7.56229 7.94132 7.62674 7.91474C7.69119 7.88815 7.74977 7.84912 7.79912 7.79986C7.84847 7.75061 7.88762 7.69211 7.91434 7.62771C7.94105 7.56331 7.9548 7.49427 7.9548 7.42455V2.121C7.95494 2.05128 7.94132 1.98221 7.91474 1.91776C7.88815 1.85331 7.84912 1.79473 7.79986 1.74538C7.75061 1.69603 7.69211 1.65688 7.62771 1.63016C7.56331 1.60345 7.49427 1.5897 7.42455 1.5897L2.121 1.59075ZM7.4235 11.4544C7.98602 11.4544 8.52551 11.6779 8.92327 12.0757C9.32104 12.4734 9.5445 13.0129 9.5445 13.5754V18.8779C9.54464 19.1566 9.48988 19.4325 9.38335 19.6899C9.27682 19.9474 9.12061 20.1813 8.92365 20.3784C8.72668 20.5755 8.49281 20.7318 8.23541 20.8384C7.97801 20.9451 7.70212 21 7.4235 21H2.121C1.55848 21 1.01899 20.7765 0.621226 20.3788C0.223462 19.981 0 19.4415 0 18.879V13.5765C0 13.014 0.223462 12.4745 0.621226 12.0767C1.01899 11.679 1.55848 11.4555 2.121 11.4555L7.4235 11.4544ZM18.879 11.4544C19.1576 11.4544 19.4335 11.5093 19.6909 11.616C19.9483 11.7227 20.1822 11.879 20.3791 12.076C20.5761 12.2731 20.7323 12.5071 20.8388 12.7645C20.9454 13.022 21.0001 13.2979 21 13.5765V18.879C21 19.4415 20.7765 19.981 20.3788 20.3788C19.981 20.7765 19.4415 21 18.879 21H13.5765C13.014 21 12.4745 20.7765 12.0767 20.3788C11.679 19.981 11.4555 19.4415 11.4555 18.879V13.5765C11.4555 13.014 11.679 12.4745 12.0767 12.0767C12.4745 11.679 13.014 11.4555 13.5765 11.4555L18.879 11.4544ZM7.4235 13.0452H2.121C1.98037 13.0452 1.8455 13.1011 1.74606 13.2005C1.64662 13.2999 1.59075 13.4348 1.59075 13.5754V18.8779C1.59075 19.1719 1.82805 19.4093 2.121 19.4093H7.4235C7.49322 19.4094 7.56229 19.3958 7.62674 19.3692C7.69119 19.3426 7.74977 19.3036 7.79912 19.2543C7.84847 19.2051 7.88762 19.1466 7.91434 19.0822C7.94105 19.0178 7.9548 18.9487 7.9548 18.879V13.5765C7.95494 13.5068 7.94132 13.4377 7.91474 13.3733C7.88815 13.3088 7.84912 13.2502 7.79986 13.2009C7.75061 13.1515 7.69211 13.1124 7.62771 13.0857C7.56331 13.0589 7.49322 13.0452 7.4235 13.0452ZM18.879 13.0452H13.5765C13.5068 13.0451 13.4377 13.0587 13.3733 13.0853C13.3088 13.1118 13.2502 13.1509 13.2009 13.2001C13.1515 13.2494 13.1124 13.3079 13.0857 13.3723C13.0589 13.4367 13.0452 13.5057 13.0452 13.5754V18.8779C13.0452 19.1719 13.2825 19.4093 13.5754 19.4093H18.8779C18.9477 19.4094 19.0167 19.3958 19.0812 19.3692C19.1456 19.3426 19.2042 19.3036 19.2536 19.2543C19.3029 19.2051 19.3421 19.1466 19.3688 19.0822C19.3955 19.0178 19.4093 18.9487 19.4093 18.879V13.5765C19.4094 13.5068 19.3958 13.4377 19.3692 13.3733C19.3426 13.3088 19.3036 13.2502 19.2543 13.2009C19.2051 13.1515 19.1466 13.1124 19.0822 13.0857C19.0178 13.0589 18.9487 13.0452 18.879 13.0452ZM7.4235 0C7.98602 0 8.52551 0.223462 8.92327 0.621226C9.32104 1.01899 9.5445 1.55848 9.5445 2.121V7.4235C9.5445 7.98602 9.32104 8.52551 8.92327 8.92327C8.52551 9.32104 7.98602 9.5445 7.4235 9.5445H2.121C1.55848 9.5445 1.01899 9.32104 0.621226 8.92327C0.223462 8.52551 0 7.98602 0 7.4235V2.121C0 1.55848 0.223462 1.01899 0.621226 0.621226C1.01899 0.223462 1.55848 0 2.121 0L7.4235 0ZM18.879 0C19.4415 0 19.981 0.223462 20.3788 0.621226C20.7765 1.01899 21 1.55848 21 2.121V7.4235C21 7.98602 20.7765 8.52551 20.3788 8.92327C19.981 9.32104 19.4415 9.5445 18.879 9.5445H13.5765C13.014 9.5445 12.4745 9.32104 12.0767 8.92327C11.679 8.52551 11.4555 7.98602 11.4555 7.4235V2.121C11.4555 1.55848 11.679 1.01899 12.0767 0.621226C12.4745 0.223462 13.014 0 13.5765 0L18.879 0ZM18.879 1.59075H13.5765C13.5068 1.59061 13.4377 1.60423 13.3733 1.63081C13.3088 1.6574 13.2502 1.69643 13.2009 1.74568C13.1515 1.79494 13.1124 1.85344 13.0857 1.91784C13.0589 1.98224 13.0452 2.05128 13.0452 2.121V7.4235C13.0452 7.7175 13.2825 7.9548 13.5754 7.9548H18.8779C18.9477 7.95494 19.0167 7.94132 19.0812 7.91474C19.1456 7.88815 19.2042 7.84912 19.2536 7.79986C19.3029 7.75061 19.3421 7.69211 19.3688 7.62771C19.3955 7.56331 19.4093 7.49427 19.4093 7.42455V2.121C19.4094 2.05128 19.3958 1.98221 19.3692 1.91776C19.3426 1.85331 19.3036 1.79473 19.2543 1.74538C19.2051 1.69603 19.1466 1.65688 19.0822 1.63016C19.0178 1.60345 18.9487 1.59075 18.879 1.59075Z" fill="#9A9FA5"/>
</svg>
