<svg width="44" height="50" viewBox="0 0 44 50" fill="none" xmlns="http://www.w3.org/2000/svg">
<path d="M23.8522 40.4032C31.8105 40.4032 38.262 33.9517 38.262 25.9933C38.262 18.035 31.8105 11.5835 23.8522 11.5835C15.8939 11.5835 9.44238 18.035 9.44238 25.9933C9.44238 33.9517 15.8939 40.4032 23.8522 40.4032Z" fill="#C5E1FF"/>
<path d="M33.7862 11.0377C33.6369 11.0383 33.49 11 33.36 10.9266C30.1984 9.19232 26.6466 8.29322 23.0406 8.31435C19.4346 8.29311 15.8828 9.19221 12.7212 10.9266C12.6137 10.993 12.4938 11.0368 12.3688 11.0553C12.2438 11.0739 12.1164 11.0667 11.9942 11.0343C11.8721 11.0019 11.7578 10.945 11.6584 10.867C11.559 10.789 11.4765 10.6916 11.416 10.5806C11.3555 10.4697 11.3183 10.3476 11.3065 10.2218C11.2948 10.0959 11.3088 9.96906 11.3478 9.84885C11.3867 9.72863 11.4497 9.61762 11.533 9.52257C11.6162 9.42752 11.718 9.35044 11.832 9.29602C15.2689 7.43874 19.1134 6.46468 23.0199 6.46143C26.9265 6.45819 30.7726 7.42585 34.2125 9.27742C34.3935 9.37637 34.5368 9.53224 34.6203 9.7209C34.7037 9.90955 34.7226 10.1205 34.6741 10.3209C34.6255 10.5214 34.5122 10.7003 34.3517 10.8299C34.1912 10.9595 33.9925 11.0325 33.7862 11.0377ZM7.27453 20.7645C7.08282 20.7634 6.89576 20.7053 6.73719 20.5976C6.63675 20.5276 6.55122 20.4383 6.48558 20.335C6.41994 20.2317 6.37549 20.1163 6.35482 19.9956C6.33415 19.875 6.33766 19.7514 6.36517 19.6321C6.39267 19.5128 6.44361 19.4002 6.51503 19.3008C8.30305 16.7459 10.6878 14.6662 13.4621 13.2423C16.4267 11.7591 19.6956 10.9853 23.0105 10.982C26.3255 10.9788 29.5958 11.7462 32.5633 13.2237C35.3322 14.6395 37.7164 16.7059 39.5114 19.2455C39.6539 19.4469 39.7106 19.6967 39.6689 19.9399C39.6273 20.1831 39.4907 20.3998 39.2893 20.5423C39.0878 20.6848 38.838 20.7415 38.5948 20.6998C38.3516 20.6581 38.1349 20.5216 37.9924 20.3201C36.3703 18.0235 34.2156 16.1544 31.7129 14.8729C29.0066 13.5279 26.0251 12.8294 23.003 12.8327C19.981 12.8359 17.0009 13.5407 14.2976 14.8915C11.7875 16.1867 9.62662 18.0678 7.99786 20.3754C7.92311 20.499 7.81657 20.6003 7.68935 20.6688C7.56212 20.7372 7.41887 20.7702 7.27453 20.7645ZM18.8535 43.1263C18.732 43.1279 18.6115 43.104 18.4999 43.0561C18.3882 43.0082 18.2878 42.9374 18.2051 42.8484C16.7028 41.4342 15.4445 39.7815 14.481 37.9571C13.1584 35.4869 12.4888 32.7198 12.5357 29.9183C12.5357 24.4158 17.2415 19.9321 23.0241 19.9321C28.8066 19.9321 33.5124 24.4158 33.5124 29.9183C33.5124 30.1639 33.4148 30.3996 33.2411 30.5733C33.0673 30.747 32.8317 30.8446 32.586 30.8446C32.3403 30.8446 32.1047 30.747 31.931 30.5733C31.7572 30.3996 31.6596 30.1639 31.6596 29.9183C31.6596 25.4346 27.7877 21.7849 23.0261 21.7849C18.2645 21.7849 14.3885 25.4331 14.3885 29.9183C14.3423 32.4031 14.9349 34.8581 16.1095 37.0483C17.0025 38.718 18.16 40.2322 19.5371 41.5319C19.7066 41.7089 19.8011 41.9445 19.8011 42.1896C19.8011 42.4347 19.7066 42.6703 19.5371 42.8473C19.3523 43.0227 19.1083 43.1223 18.8535 43.1263ZM32.1376 39.6988C30.0997 39.7488 28.0953 39.1734 26.3943 38.0501C25.0505 37.1584 23.9459 35.9508 23.1771 34.5331C22.4083 33.1155 21.9988 31.5309 21.9845 29.9183C21.9845 29.6726 22.0821 29.4369 22.2559 29.2632C22.4296 29.0895 22.6652 28.9919 22.9109 28.9919C23.1566 28.9919 23.3922 29.0895 23.566 29.2632C23.7397 29.4369 23.8373 29.6726 23.8373 29.9183C23.848 31.2284 24.1816 32.5158 24.8086 33.6662C25.4356 34.8167 26.3365 35.7949 27.4318 36.514C28.8282 37.425 30.4711 37.8843 32.1376 37.8295C32.7837 37.8186 33.4279 37.7565 34.0642 37.644C34.3074 37.6022 34.5573 37.6587 34.7588 37.8011C34.9604 37.9436 35.0971 38.1602 35.1389 38.4035C35.1807 38.6467 35.1241 38.8966 34.9817 39.0981C34.8393 39.2996 34.6226 39.4363 34.3794 39.4781C33.6402 39.6184 32.8899 39.6924 32.1376 39.6993V39.6988ZM28.4134 43.5154C28.332 43.5121 28.2513 43.4996 28.1727 43.4782C25.5582 42.8477 23.1715 41.5004 21.2808 39.5877C20.0013 38.3243 18.9866 36.8184 18.2962 35.1581C17.6058 33.4978 17.2536 31.7164 17.2601 29.9183C17.2965 28.4397 17.9176 27.0359 18.9873 26.0146C20.057 24.9933 21.4881 24.4378 22.9667 24.47C24.4453 24.438 25.8762 24.9935 26.9458 26.0148C28.0154 27.0361 28.6365 28.4398 28.6728 29.9183C28.7415 30.8934 29.1774 31.8062 29.8925 32.4727C30.6076 33.1392 31.5488 33.5098 32.5264 33.5098C33.5039 33.5098 34.4451 33.1392 35.1602 32.4727C35.8753 31.8062 36.3112 30.8934 36.3799 29.9183C36.3799 22.9334 30.3587 17.2641 22.9466 17.2641C17.6848 17.2641 12.868 20.1915 10.7016 24.7304C9.95245 26.3557 9.57896 28.1289 9.60883 29.9183C9.60316 32.2053 10.0237 34.4735 10.8488 36.6065C10.8937 36.7194 10.9153 36.8402 10.9125 36.9617C10.9096 37.0832 10.8823 37.2029 10.8321 37.3135C10.7819 37.4242 10.71 37.5237 10.6205 37.6059C10.5311 37.6882 10.426 37.7515 10.3115 37.7923C10.1984 37.8349 10.0781 37.8548 9.95732 37.8508C9.83656 37.8468 9.71776 37.8191 9.60773 37.7692C9.49769 37.7193 9.39858 37.6482 9.31605 37.5599C9.23353 37.4717 9.16921 37.368 9.12678 37.2549C8.23418 34.9118 7.776 32.4256 7.77466 29.9183C7.74276 27.8481 8.17309 25.7969 9.03429 23.9141C11.4983 18.7474 16.9641 15.3891 22.9481 15.3891C31.3781 15.3891 38.2327 21.8918 38.2327 29.8955C38.1657 31.3639 37.5352 32.7499 36.4724 33.7653C35.4096 34.7807 33.9962 35.3473 32.5264 35.3473C31.0565 35.3473 29.6431 34.7807 28.5803 33.7653C27.5175 32.7499 26.8871 31.3639 26.82 29.8955C26.7843 28.9084 26.3586 27.9757 25.6363 27.302C24.914 26.6283 23.9539 26.2685 22.9667 26.3016C21.9793 26.2684 21.0191 26.6282 20.2966 27.302C19.5742 27.9759 19.1485 28.9087 19.1129 29.896C19.1052 31.4493 19.4077 32.9884 20.0026 34.4232C20.5976 35.858 21.4731 37.1596 22.5777 38.2516C24.2352 39.9404 26.3348 41.1283 28.6361 41.6791C28.7533 41.7106 28.8631 41.7648 28.9591 41.8389C29.0552 41.9129 29.1357 42.0052 29.196 42.1105C29.2563 42.2157 29.2951 42.3319 29.3103 42.4522C29.3255 42.5726 29.3167 42.6947 29.2845 42.8117C29.2396 43.0098 29.1293 43.187 28.9714 43.3148C28.8134 43.4425 28.6171 43.5134 28.4139 43.5159L28.4134 43.5154Z" fill="#0A81FF" stroke="#0A81FF" stroke-width="0.35"/>
<path d="M12.8704 2.26465H1.79517V12.0922" stroke="#0A81FF" stroke-width="3.5"/>
<path d="M12.8704 47.7352H1.79517V37.9077" stroke="#0A81FF" stroke-width="3.5"/>
<path d="M31.1301 2.26465H42.2054V12.0922" stroke="#0A81FF" stroke-width="3.5"/>
<path d="M31.1301 47.7352H42.2054V37.9077" stroke="#0A81FF" stroke-width="3.5"/>
</svg>
