<svg width="62" height="62" viewBox="0 0 62 62" fill="none" xmlns="http://www.w3.org/2000/svg">
<path d="M42.7862 17.0377C42.6369 17.0383 42.49 17 42.36 16.9266C39.1984 15.1923 35.6466 14.2932 32.0406 14.3144C28.4346 14.2931 24.8828 15.1922 21.7212 16.9266C21.6137 16.993 21.4938 17.0368 21.3688 17.0553C21.2438 17.0739 21.1164 17.0667 20.9942 17.0343C20.8721 17.0019 20.7578 16.945 20.6584 16.867C20.559 16.789 20.4765 16.6916 20.416 16.5806C20.3555 16.4697 20.3183 16.3476 20.3065 16.2218C20.2948 16.0959 20.3088 15.9691 20.3478 15.8488C20.3867 15.7286 20.4497 15.6176 20.533 15.5226C20.6162 15.4275 20.718 15.3504 20.832 15.296C24.2689 13.4387 28.1134 12.4647 32.0199 12.4614C35.9265 12.4582 39.7726 13.4258 43.2125 15.2774C43.3935 15.3764 43.5368 15.5322 43.6203 15.7209C43.7037 15.9095 43.7226 16.1205 43.6741 16.3209C43.6255 16.5214 43.5122 16.7003 43.3517 16.8299C43.1912 16.9595 42.9925 17.0325 42.7862 17.0377ZM16.2745 26.7645C16.0828 26.7634 15.8958 26.7053 15.7372 26.5976C15.6368 26.5276 15.5512 26.4383 15.4856 26.335C15.4199 26.2317 15.3755 26.1163 15.3548 25.9956C15.3341 25.875 15.3377 25.7514 15.3652 25.6321C15.3927 25.5128 15.4436 25.4002 15.515 25.3008C17.3031 22.7459 19.6878 20.6662 22.4621 19.2423C25.4267 17.7591 28.6956 16.9853 32.0105 16.982C35.3255 16.9788 38.5958 17.7462 41.5633 19.2237C44.3322 20.6395 46.7164 22.7059 48.5114 25.2455C48.6539 25.4469 48.7106 25.6967 48.6689 25.9399C48.6273 26.1831 48.4907 26.3998 48.2893 26.5423C48.0878 26.6848 47.838 26.7415 47.5948 26.6998C47.3516 26.6581 47.1349 26.5216 46.9924 26.3201C45.3703 24.0235 43.2156 22.1544 40.7129 20.8729C38.0066 19.5279 35.0251 18.8294 32.003 18.8327C28.981 18.8359 26.0009 19.5407 23.2976 20.8915C20.7875 22.1867 18.6266 24.0678 16.9979 26.3754C16.9231 26.499 16.8166 26.6003 16.6893 26.6688C16.5621 26.7372 16.4189 26.7702 16.2745 26.7645ZM27.8535 49.1263C27.732 49.1279 27.6115 49.104 27.4999 49.0561C27.3882 49.0082 27.2878 48.9374 27.2051 48.8484C25.7028 47.4342 24.4445 45.7815 23.481 43.9571C22.1584 41.4869 21.4888 38.7198 21.5357 35.9183C21.5357 30.4158 26.2415 25.9321 32.0241 25.9321C37.8066 25.9321 42.5124 30.4158 42.5124 35.9183C42.5124 36.1639 42.4148 36.3996 42.2411 36.5733C42.0673 36.747 41.8317 36.8446 41.586 36.8446C41.3403 36.8446 41.1047 36.747 40.931 36.5733C40.7572 36.3996 40.6596 36.1639 40.6596 35.9183C40.6596 31.4346 36.7877 27.7849 32.0261 27.7849C27.2645 27.7849 23.3885 31.4331 23.3885 35.9183C23.3423 38.4031 23.9349 40.8581 25.1095 43.0483C26.0025 44.718 27.16 46.2322 28.5371 47.5319C28.7066 47.7089 28.8011 47.9445 28.8011 48.1896C28.8011 48.4347 28.7066 48.6703 28.5371 48.8473C28.3523 49.0227 28.1083 49.1223 27.8535 49.1263ZM41.1376 45.6988C39.0997 45.7488 37.0953 45.1734 35.3943 44.0501C34.0505 43.1584 32.9459 41.9508 32.1771 40.5331C31.4083 39.1155 30.9988 37.5309 30.9845 35.9183C30.9845 35.6726 31.0821 35.4369 31.2559 35.2632C31.4296 35.0895 31.6652 34.9919 31.9109 34.9919C32.1566 34.9919 32.3922 35.0895 32.566 35.2632C32.7397 35.4369 32.8373 35.6726 32.8373 35.9183C32.848 37.2284 33.1816 38.5158 33.8086 39.6662C34.4356 40.8167 35.3365 41.7949 36.4318 42.514C37.8282 43.425 39.4711 43.8843 41.1376 43.8295C41.7837 43.8186 42.4279 43.7565 43.0642 43.644C43.3074 43.6022 43.5573 43.6587 43.7588 43.8011C43.9604 43.9436 44.0971 44.1602 44.1389 44.4035C44.1807 44.6467 44.1241 44.8966 43.9817 45.0981C43.8393 45.2996 43.6226 45.4363 43.3794 45.4781C42.6402 45.6184 41.8899 45.6924 41.1376 45.6993V45.6988ZM37.4134 49.5154C37.332 49.5121 37.2513 49.4996 37.1727 49.4782C34.5582 48.8477 32.1715 47.5004 30.2808 45.5877C29.0013 44.3243 27.9866 42.8184 27.2962 41.1581C26.6058 39.4978 26.2536 37.7164 26.2601 35.9183C26.2965 34.4397 26.9176 33.0359 27.9873 32.0146C29.057 30.9933 30.4881 30.4378 31.9667 30.47C33.4453 30.438 34.8762 30.9935 35.9458 32.0148C37.0154 33.0361 37.6365 34.4398 37.6728 35.9183C37.7415 36.8934 38.1774 37.8062 38.8925 38.4727C39.6076 39.1392 40.5488 39.5098 41.5264 39.5098C42.5039 39.5098 43.4451 39.1392 44.1602 38.4727C44.8753 37.8062 45.3112 36.8934 45.3799 35.9183C45.3799 28.9334 39.3587 23.2641 31.9466 23.2641C26.6848 23.2641 21.868 26.1915 19.7016 30.7304C18.9525 32.3557 18.579 34.1289 18.6088 35.9183C18.6032 38.2053 19.0237 40.4735 19.8488 42.6065C19.8937 42.7194 19.9153 42.8402 19.9125 42.9617C19.9096 43.0832 19.8823 43.2029 19.8321 43.3135C19.7819 43.4242 19.71 43.5237 19.6205 43.6059C19.5311 43.6882 19.426 43.7515 19.3115 43.7923C19.1984 43.8349 19.0781 43.8548 18.9573 43.8508C18.8366 43.8468 18.7178 43.8191 18.6077 43.7692C18.4977 43.7193 18.3986 43.6482 18.3161 43.5599C18.2335 43.4717 18.1692 43.368 18.1268 43.2549C17.2342 40.9118 16.776 38.4256 16.7747 35.9183C16.7428 33.8481 17.1731 31.7969 18.0343 29.9141C20.4983 24.7474 25.9641 21.3891 31.9481 21.3891C40.3781 21.3891 47.2327 27.8918 47.2327 35.8955C47.1657 37.3639 46.5352 38.7499 45.4724 39.7653C44.4096 40.7807 42.9962 41.3473 41.5264 41.3473C40.0565 41.3473 38.6431 40.7807 37.5803 39.7653C36.5175 38.7499 35.8871 37.3639 35.82 35.8955C35.7843 34.9084 35.3586 33.9757 34.6363 33.302C33.914 32.6283 32.9539 32.2685 31.9667 32.3016C30.9793 32.2684 30.0191 32.6282 29.2966 33.302C28.5742 33.9759 28.1485 34.9087 28.1129 35.896C28.1052 37.4493 28.4077 38.9884 29.0026 40.4232C29.5976 41.858 30.4731 43.1596 31.5777 44.2516C33.2352 45.9404 35.3348 47.1283 37.6361 47.6791C37.7533 47.7106 37.8631 47.7648 37.9591 47.8389C38.0552 47.9129 38.1357 48.0052 38.196 48.1105C38.2563 48.2157 38.2951 48.3319 38.3103 48.4522C38.3255 48.5726 38.3167 48.6947 38.2845 48.8117C38.2396 49.0098 38.1293 49.187 37.9714 49.3148C37.8134 49.4425 37.6171 49.5134 37.4139 49.5159L37.4134 49.5154Z" fill="#0A81FF" stroke="#0A81FF" stroke-width="0.35"/>
<path d="M21.8704 8.26465H10.7952V18.0922" stroke="#0A81FF" stroke-width="3.5"/>
<path d="M21.8704 53.7352H10.7952V43.9077" stroke="#0A81FF" stroke-width="3.5"/>
<path d="M40.1301 8.26465H51.2054V18.0922" stroke="#0A81FF" stroke-width="3.5"/>
<path d="M40.1301 53.7352H51.2054V43.9077" stroke="#0A81FF" stroke-width="3.5"/>
</svg>
