<svg width="20" height="22" viewBox="0 0 20 22" fill="none" xmlns="http://www.w3.org/2000/svg">
<path fill-rule="evenodd" clip-rule="evenodd" d="M10 2.33317C7.98878 2.33317 6.05992 3.13213 4.63777 4.55428C3.21562 5.97643 2.41667 7.90528 2.41667 9.9165V12.0832C2.41667 12.3705 2.30253 12.646 2.09937 12.8492C1.8962 13.0524 1.62065 13.1665 1.33333 13.1665C1.04602 13.1665 0.770465 13.0524 0.567301 12.8492C0.364137 12.646 0.25 12.3705 0.25 12.0832V9.9165C0.25 7.33064 1.27723 4.85069 3.10571 3.02221C4.93419 1.19373 7.41414 0.166504 10 0.166504C12.5859 0.166504 15.0658 1.19373 16.8943 3.02221C18.7228 4.85069 19.75 7.33064 19.75 9.9165V13.1665C19.735 14.1214 19.6638 15.0746 19.5366 16.0211C19.3318 17.5215 18.9028 19.5322 17.9083 20.8582C17.7359 21.088 17.4793 21.24 17.1949 21.2806C16.9104 21.3213 16.6215 21.2472 16.3917 21.0748C16.1618 20.9024 16.0099 20.6458 15.9692 20.3614C15.9286 20.0769 16.0026 19.788 16.175 19.5582C16.8055 18.7175 17.189 17.2073 17.3905 15.7286C17.5042 14.879 17.5686 14.0235 17.5833 13.1665V9.9165C17.5833 7.90528 16.7844 5.97643 15.3622 4.55428C13.9401 3.13213 12.0112 2.33317 10 2.33317ZM10 6.6665C9.13805 6.6665 8.3114 7.00891 7.7019 7.61841C7.09241 8.2279 6.75 9.05455 6.75 9.9165V10.9998C6.75 12.0182 6.42067 13.2748 5.80967 14.421C5.19542 15.5726 4.23992 16.7155 2.90092 17.385C2.77322 17.4539 2.63299 17.4964 2.48855 17.51C2.34411 17.5237 2.1984 17.5081 2.06007 17.4644C1.92174 17.4206 1.7936 17.3496 1.68327 17.2553C1.57293 17.1611 1.48264 17.0457 1.41776 16.916C1.35288 16.7862 1.31472 16.6447 1.30555 16.4999C1.29639 16.3551 1.3164 16.21 1.3644 16.0731C1.4124 15.9361 1.48741 15.8103 1.58499 15.7029C1.68256 15.5955 1.80071 15.5088 1.93242 15.448C2.76008 15.0342 3.42958 14.2813 3.89867 13.4005C4.371 12.5165 4.58333 11.6065 4.58333 10.9998V9.9165C4.58333 8.47991 5.15402 7.10216 6.16984 6.08634C7.18566 5.07052 8.56341 4.49984 10 4.49984C11.4366 4.49984 12.8143 5.07052 13.8302 6.08634C14.846 7.10216 15.4167 8.47991 15.4167 9.9165V11.1266C15.4167 14.2943 15.4178 18.5474 11.7767 21.5818C11.6679 21.677 11.5413 21.7494 11.4042 21.7948C11.2671 21.8403 11.1222 21.8578 10.9782 21.8465C10.8342 21.8351 10.6939 21.7951 10.5656 21.7287C10.4373 21.6623 10.3236 21.571 10.2311 21.46C10.1386 21.349 10.0693 21.2207 10.0272 21.0825C9.98501 20.9444 9.97093 20.7992 9.98573 20.6555C10.0005 20.5118 10.0439 20.3725 10.1134 20.2458C10.1828 20.1191 10.2768 20.0076 10.39 19.9178C13.2002 17.5757 13.25 14.3192 13.25 10.9998V9.9165C13.25 9.05455 12.9076 8.2279 12.2981 7.61841C11.6886 7.00891 10.862 6.6665 10 6.6665ZM11.0833 10.4582C11.0833 10.1709 10.9692 9.8953 10.766 9.69214C10.5629 9.48897 10.2873 9.37484 10 9.37484C9.71268 9.37484 9.43713 9.48897 9.23397 9.69214C9.0308 9.8953 8.91667 10.1709 8.91667 10.4582C8.91667 11.7549 8.78558 13.3853 8.29483 14.8554C7.80733 16.3223 7.00133 17.5172 5.72408 18.1563C5.59237 18.2172 5.47423 18.3039 5.37665 18.4112C5.27908 18.5186 5.20407 18.6445 5.15607 18.7814C5.10807 18.9183 5.08805 19.0635 5.09722 19.2083C5.10639 19.353 5.14454 19.4945 5.20943 19.6243C5.27431 19.7541 5.3646 19.8695 5.47493 19.9637C5.58527 20.0579 5.7134 20.129 5.85173 20.1727C5.99006 20.2165 6.13577 20.232 6.28021 20.2183C6.42465 20.2047 6.56488 20.1622 6.69258 20.0933C8.66533 19.1075 9.75625 17.3243 10.351 15.5401C10.9436 13.7602 11.0833 11.8698 11.0833 10.4582Z" fill="#0A81FF"/>
</svg>
