<svg width="31" height="25" viewBox="0 0 31 25" fill="none" xmlns="http://www.w3.org/2000/svg">
<path d="M27.4583 24.0313H3.54159C2.75008 24.0268 1.99227 23.7104 1.43259 23.1507C0.8729 22.591 0.556486 21.8332 0.552002 21.0417V3.95833C0.556486 3.16683 0.8729 2.40902 1.43259 1.84933C1.99227 1.28965 2.75008 0.973235 3.54159 0.96875H27.4583C28.2498 0.973235 29.0076 1.28965 29.5673 1.84933C30.1269 2.40902 30.4434 3.16683 30.4478 3.95833V21.0417C30.4434 21.8332 30.1269 22.591 29.5673 23.1507C29.0076 23.7104 28.2498 24.0268 27.4583 24.0313ZM3.54159 3.53125C3.42832 3.53125 3.31969 3.57625 3.23959 3.65634C3.1595 3.73643 3.1145 3.84506 3.1145 3.95833V21.0417C3.1145 21.1549 3.1595 21.2636 3.23959 21.3437C3.31969 21.4238 3.42832 21.4688 3.54159 21.4688H27.4583C27.5715 21.4688 27.6802 21.4238 27.7602 21.3437C27.8403 21.2636 27.8853 21.1549 27.8853 21.0417V3.95833C27.8853 3.84506 27.8403 3.73643 27.7602 3.65634C27.6802 3.57625 27.5715 3.53125 27.4583 3.53125H3.54159Z" fill="#0A81FF"/>
<path d="M10.375 12.0731C9.69925 12.0731 9.03867 11.8727 8.4768 11.4973C7.91493 11.1218 7.47701 10.5882 7.21841 9.96392C6.95981 9.3396 6.89215 8.65262 7.02398 7.98986C7.15582 7.32709 7.48122 6.7183 7.95905 6.24047C8.43688 5.76264 9.04567 5.43723 9.70844 5.3054C10.3712 5.17357 11.0582 5.24123 11.6825 5.49983C12.3068 5.75843 12.8404 6.19635 13.2159 6.75822C13.5913 7.32008 13.7917 7.98066 13.7917 8.65641C13.7917 9.56257 13.4317 10.4316 12.7909 11.0724C12.1502 11.7131 11.2812 12.0731 10.375 12.0731ZM10.375 7.80225C10.2061 7.80225 10.0409 7.85234 9.90045 7.9462C9.75998 8.04006 9.6505 8.17346 9.58585 8.32954C9.5212 8.48562 9.50429 8.65736 9.53725 8.82306C9.5702 8.98875 9.65155 9.14094 9.77101 9.2604C9.89047 9.37986 10.0427 9.46121 10.2084 9.49417C10.3741 9.52713 10.5458 9.51021 10.7019 9.44556C10.858 9.38091 10.9914 9.27143 11.0852 9.13096C11.1791 8.9905 11.2292 8.82535 11.2292 8.65641C11.2292 8.42988 11.1392 8.21261 10.979 8.05243C10.8188 7.89224 10.6015 7.80225 10.375 7.80225ZM15.5 18.9064C15.1616 18.902 14.8382 18.7656 14.5989 18.5263C14.3596 18.2869 14.2232 17.9636 14.2187 17.6252C14.2187 16.4635 13.9283 15.4897 10.375 15.4897C6.82167 15.4897 6.53125 16.4635 6.53125 17.6252C6.53125 17.965 6.39626 18.2909 6.15598 18.5311C5.9157 18.7714 5.58981 18.9064 5.25 18.9064C4.91019 18.9064 4.5843 18.7714 4.34402 18.5311C4.10374 18.2909 3.96875 17.965 3.96875 17.6252C3.96875 12.9272 8.78625 12.9272 10.375 12.9272C11.9637 12.9272 16.7812 12.9272 16.7812 17.6252C16.7768 17.9636 16.6404 18.2869 16.4011 18.5263C16.1618 18.7656 15.8384 18.902 15.5 18.9064ZM24.0417 10.3647H18.9167C18.5769 10.3647 18.251 10.2298 18.0107 9.98948C17.7704 9.7492 17.6354 9.42331 17.6354 9.0835C17.6354 8.74369 17.7704 8.4178 18.0107 8.17752C18.251 7.93724 18.5769 7.80225 18.9167 7.80225H24.0417C24.3815 7.80225 24.7074 7.93724 24.9476 8.17752C25.1879 8.4178 25.3229 8.74369 25.3229 9.0835C25.3229 9.42331 25.1879 9.7492 24.9476 9.98948C24.7074 10.2298 24.3815 10.3647 24.0417 10.3647ZM22.3333 15.4897H18.9167C18.5769 15.4897 18.251 15.3548 18.0107 15.1145C17.7704 14.8742 17.6354 14.5483 17.6354 14.2085C17.6354 13.8687 17.7704 13.5428 18.0107 13.3025C18.251 13.0622 18.5769 12.9272 18.9167 12.9272H22.3333C22.6731 12.9272 22.999 13.0622 23.2393 13.3025C23.4796 13.5428 23.6146 13.8687 23.6146 14.2085C23.6146 14.5483 23.4796 14.8742 23.2393 15.1145C22.999 15.3548 22.6731 15.4897 22.3333 15.4897Z" fill="#0A81FF"/>
</svg>
