<svg width="24" height="21" viewBox="0 0 24 21" fill="none" xmlns="http://www.w3.org/2000/svg">
<path d="M1.013 5.305L0.5 4.06459C0.5 2.42862 0.588038 2.51972 1.40602 1.5C1.96863 0.937391 3.15735 0.5 3.953 0.5H6.906H9.40602C10.2016 0.50017 11.0195 1.03163 11.582 1.59427L12.906 3C13.4685 3.56265 14.1494 3.99983 14.945 4H20.918C21.3349 3.99996 21.7472 4.0868 22.1286 4.25499C22.5101 4.42317 22.8523 4.66902 23.1334 4.97683C23.4146 5.28465 23.6285 5.64768 23.7615 6.04276C23.8945 6.43785 23.9437 6.85633 23.906 7.2715L22.9505 17.7715C22.8828 18.5169 22.5389 19.21 21.9863 19.7148C21.4337 20.2197 20.7124 20.4997 19.964 20.5H4.442C3.69356 20.4997 2.97225 20.2197 2.4197 19.7148C1.86714 19.21 1.52323 18.5169 1.4555 17.7715L0.5 7.2715C0.43608 6.57667 0.617592 5.88141 1.013 5.3065V5.305ZM3.5 5.92188C3.29163 5.92186 3.09667 5.91595 2.906 6C2.71533 6.08405 3.09383 5.94322 2.906 6C2.906 6 2.56656 6.10586 2.5 6.30331C2.43344 6.50077 2.48125 6.71435 2.5 6.92188L3.5 17.4219C3.53368 17.7946 3.606 17.8008 3.606 18C3.88214 18.2525 4.30312 18.6065 4.67732 18.6069H12.3001H19.964C20.3382 18.6065 20.2239 18.6744 20.5 18.4219C20.7761 18.1693 20.9663 17.7946 21 17.4219L21.9843 7.2715C22.003 7.06397 22 6.5 22 6.5C22 6 21.5 6 21.5 6C21.5 6 21.1264 5.92186 20.918 5.92188L12.3001 6L3.5 5.92188ZM10.523 2.9395C10.3836 2.80002 10.218 2.68941 10.0358 2.614C9.85354 2.53858 9.65822 2.49984 9.461 2.5H3.953C3.56007 2.49993 3.18279 2.65405 2.90229 2.92922C2.62179 3.20439 2.46047 3.57864 2.453 3.9715L2.462 4.18C2.783 4.063 3.128 4 3.488 4H11.582L10.523 2.9395Z" fill="#9A9FA5"/>
</svg>
