<svg width="82" height="81" viewBox="0 0 82 81" fill="none" xmlns="http://www.w3.org/2000/svg">
<path fill-rule="evenodd" clip-rule="evenodd" d="M42.4614 38.8719C43.2684 39.679 43.2684 40.9875 42.4614 41.7946C31.9164 52.3396 16.9706 55.8222 3.53475 52.2291C2.43211 51.9342 1.77729 50.8013 2.07216 49.6987C2.36703 48.596 3.49994 47.9412 4.60258 48.2361C16.6694 51.463 30.0783 48.3322 39.5386 38.8719C40.3457 38.0648 41.6543 38.0648 42.4614 38.8719Z" fill="white"/>
<path fill-rule="evenodd" clip-rule="evenodd" d="M78.427 42.8669C68.7394 38.7617 57.1194 40.6641 49.2306 48.5625L49.2277 48.5654C44.6931 53.0875 37.279 53.1548 32.729 48.6047C32.3979 48.2736 32.0669 47.9061 31.7649 47.5121C31.0704 46.6063 31.2418 45.3091 32.1476 44.6146C33.0534 43.9201 34.3507 44.0915 35.0451 44.9973C35.2184 45.2233 35.4248 45.4552 35.6517 45.682C38.5618 48.5922 43.3607 48.5773 46.3076 45.64C55.4275 36.5104 68.8546 34.3214 80.0397 39.0612C81.0906 39.5065 81.5815 40.7195 81.1362 41.7704C80.6909 42.8213 79.4779 43.3123 78.427 42.8669Z" fill="white"/>
<path fill-rule="evenodd" clip-rule="evenodd" d="M76.7042 52.6834C70.1704 48.8221 61.6082 49.7004 55.9877 55.3209L55.9867 55.3219C47.7152 63.5819 34.2451 63.6363 25.971 55.3622C24.6777 54.069 23.5916 52.6508 22.7013 51.1555C22.1173 50.1748 22.439 48.9064 23.4197 48.3225C24.4004 47.7385 25.6688 48.0602 26.2527 49.0409C26.9744 50.2529 27.8516 51.3974 28.8937 52.4395C35.5406 59.0864 46.3944 59.0585 53.065 52.3982C53.0652 52.398 53.0653 52.3978 53.0655 52.3977C60.0517 45.412 70.6885 44.3271 78.8071 49.125C79.7898 49.7057 80.1156 50.973 79.5349 51.9557C78.9542 52.9383 77.6868 53.2641 76.7042 52.6834Z" fill="white"/>
<path fill-rule="evenodd" clip-rule="evenodd" d="M72.6313 61.4525C69.7033 59.1716 65.4507 59.3742 62.7457 62.0791C61.9386 62.8862 60.6301 62.8862 59.823 62.0791C59.0159 61.272 59.0159 59.9635 59.823 59.1564C64.0207 54.9587 70.618 54.6447 75.1714 58.1918C76.0718 58.8932 76.2331 60.1917 75.5317 61.0922C74.8303 61.9926 73.5317 62.1539 72.6313 61.4525Z" fill="white"/>
<path fill-rule="evenodd" clip-rule="evenodd" d="M13.7258 49.6749C14.7758 49.2273 15.9898 49.7155 16.4374 50.7655C17.7423 53.8262 19.6312 56.6931 22.1357 59.1976C32.5261 69.588 49.4249 69.5544 59.823 59.1563C60.6301 58.3492 61.9386 58.3492 62.7457 59.1563C63.5528 59.9634 63.5528 61.2719 62.7457 62.079C50.7411 74.0835 31.2253 74.1326 19.213 62.1203C16.3235 59.2308 14.141 55.9184 12.6352 52.3865C12.1876 51.3365 12.6759 50.1225 13.7258 49.6749Z" fill="white"/>
<path fill-rule="evenodd" clip-rule="evenodd" d="M32.7806 32.114C37.3181 27.5766 44.6819 27.5766 49.2194 32.114C49.5505 32.4451 49.8814 32.8126 50.1835 33.2066C50.8779 34.1124 50.7066 35.4097 49.8008 36.1041C48.8949 36.7986 47.5977 36.6273 46.9032 35.7214C46.7299 35.4955 46.5235 35.2636 46.2966 35.0367C43.3734 32.1135 38.6266 32.1135 35.7034 35.0367C26.5836 44.1564 13.1562 46.3459 1.97064 41.6059C0.919716 41.1605 0.428796 39.9476 0.874137 38.8967C1.31948 37.8457 2.53244 37.3548 3.58336 37.8002C13.2712 41.9055 24.8917 40.0029 32.7806 32.114Z" fill="white"/>
<path fill-rule="evenodd" clip-rule="evenodd" d="M26.0226 25.3561C34.2904 17.0883 47.7096 17.0883 55.9774 25.3561C57.2706 26.6493 58.3567 28.0675 59.2471 29.5628C59.831 30.5435 59.5094 31.8119 58.5286 32.3958C57.5479 32.9798 56.2795 32.6581 55.6956 31.6774C54.974 30.4654 54.0967 29.3209 53.0546 28.2788C46.4011 21.6252 35.5989 21.6252 28.9454 28.2788C21.9592 35.2649 11.322 36.35 3.20321 31.552C2.22059 30.9713 1.89476 29.7039 2.47547 28.7213C3.05617 27.7387 4.3235 27.4129 5.30613 27.9936C11.84 31.8549 20.4021 30.9766 26.0226 25.3561Z" fill="white"/>
<path fill-rule="evenodd" clip-rule="evenodd" d="M19.2646 18.5981C31.2633 6.5891 50.7275 6.59029 62.7354 18.5981C65.6224 21.4852 67.8176 24.7981 69.3152 28.337C69.7601 29.3882 69.2686 30.6009 68.2174 31.0457C67.1663 31.4906 65.9536 30.9991 65.5088 29.9479C64.2164 26.8941 62.3196 24.0278 59.8126 21.5208C49.418 11.1262 32.5714 11.1272 22.188 21.5201L22.1874 21.5208C17.9884 25.7198 11.3905 26.0317 6.82799 22.4747C5.92784 21.7729 5.76702 20.4743 6.46879 19.5741C7.17056 18.674 8.46919 18.5131 9.36934 19.2149C12.3089 21.5066 16.5609 21.3018 19.2646 18.5981Z" fill="white"/>
<path fill-rule="evenodd" clip-rule="evenodd" d="M39.5394 38.8712C50.0951 28.3264 65.0297 24.8556 78.4737 28.437C79.5766 28.7308 80.2325 29.8631 79.9387 30.966C79.6449 32.0689 78.5126 32.7248 77.4097 32.431C65.3303 29.2131 51.9309 32.335 42.4606 41.7954C41.6531 42.6021 40.3446 42.6014 39.5379 41.7939C38.7312 40.9864 38.7319 39.6779 39.5394 38.8712Z" fill="white"/>
<path fill-rule="evenodd" clip-rule="evenodd" d="M41 4.16654C21.0257 4.16654 4.83333 20.3589 4.83333 40.3332C4.83333 60.3075 21.0257 76.4999 41 76.4999C60.9743 76.4999 77.1667 60.3075 77.1667 40.3332C77.1667 20.3589 60.9743 4.16654 41 4.16654ZM0.700001 40.3332C0.700001 18.0761 18.7429 0.0332031 41 0.0332031C63.2571 0.0332031 81.3 18.0761 81.3 40.3332C81.3 62.5903 63.2571 80.6332 41 80.6332C18.7429 80.6332 0.700001 62.5903 0.700001 40.3332Z" fill="white"/>
</svg>
