<?xml version="1.0" encoding="utf-8"?>
<!-- Generator: Adobe Illustrator 17.0.0, SVG Export Plug-In . SVG Version: 6.00 Build 0)  -->
<!DOCTYPE svg PUBLIC "-//W3C//DTD SVG 1.1//EN" "http://www.w3.org/Graphics/SVG/1.1/DTD/svg11.dtd">
<svg version="1.1" id="Layer_1" xmlns="http://www.w3.org/2000/svg" xmlns:xlink="http://www.w3.org/1999/xlink" x="0px" y="0px"
	 width="612px" height="792px" viewBox="0 0 612 792" enable-background="new 0 0 612 792" xml:space="preserve">
<g id="XMLID_12_">
	<path id="XMLID_1_" fill="none" stroke="#000000" stroke-width="16" stroke-linecap="round" stroke-miterlimit="10" d="
		M112.688,239.854c8.528-11.003,59.419-74.445,151.578-84.511c84.982-9.282,145.373,33.342,158.093,42.761"/>
	<path id="XMLID_2_" fill="none" stroke="#000000" stroke-width="16" stroke-linecap="round" stroke-miterlimit="10" d="
		M101.726,323.397c30.496-66.97,95.506-112.667,169.32-118.745c106.136-8.739,171.937,69.253,176.988,75.459"/>
	<path id="XMLID_3_" fill="none" stroke="#000000" stroke-width="16" stroke-linecap="round" stroke-miterlimit="10" d="
		M102.148,409.096c10.067-8.132,24.849-21.296,39.616-39.979c19.416-24.565,21.312-36.535,36.517-56.864
		c9.409-12.58,30.495-40.772,66.288-54.703c56.157-21.856,110.183,6.31,115.119,8.98c5.038,2.725,44.917,25.012,62.657,69.498
		c1.173,2.942,1.927,5.175,2.487,6.836c18.513,54.881-3.543,84.145,5.965,121.083c3.589,13.944,12.63,33.079,38.277,52.883"/>
	<path id="XMLID_4_" fill="none" stroke="#000000" stroke-width="16" stroke-linecap="round" stroke-miterlimit="10" d="
		M104.282,472.531c36.412-29.324,57.291-57.987,69.58-78.551c19.012-31.816,27.682-44.889,48.501-64.311
		c6.053-5.647,35.531-32.82,79.753-23.532c30.583,6.423,61.423,29.489,74.079,68.599c15.781,48.771-9.868,72.694,5.553,116.442
		c12.041,34.158,40.524,56.013,63.732,69.439"/>
	<path id="XMLID_11_" fill="none" stroke="#000000" stroke-width="16" stroke-linecap="round" stroke-miterlimit="10" d="
		M182.449,444.183c0,12.692-26.14,52.392-80.302,76.93"/>
	<path id="XMLID_7_" fill="none" stroke="#000000" stroke-width="16" stroke-linecap="round" stroke-miterlimit="10" d="
		M457.889,319.028c7.567,18.379,16.116,44.986,18.916,77.901c2.381,27.988-0.13,51.885-3.402,69.654"/>
	<path id="XMLID_8_" fill="none" stroke="#000000" stroke-width="16" stroke-linecap="round" stroke-miterlimit="10" d="
		M341.541,494.091c-1.199,3.049-16.818,44.828,9.394,78.706c14.587,18.853,34.534,25.443,42.424,27.592"/>
	<path id="XMLID_9_" fill="none" stroke="#000000" stroke-width="16" stroke-linecap="round" stroke-miterlimit="10" d="
		M202.454,600.389c5.95-33.552,36.931-54.413,61.129-52.821c22.14,1.457,49.332,44.852,49.977,66.548"/>
</g>
<path id="XMLID_5_" fill="none" stroke="#00AEEF" stroke-width="16" stroke-linecap="round" stroke-miterlimit="10" d="
	M263.317,339.272c8.871-0.224,22.922,0.856,37.155,8.998c32.168,18.403,47.262,62.583,40.751,97.697
	c-8.457,45.607-54.442,69.533-109.069,64.901"/>
<path id="XMLID_10_" fill="none" stroke="#00AEEF" stroke-width="16" stroke-linecap="round" stroke-miterlimit="10" d="
	M117.462,555.937c66.122-32.558,90.228-65.171,99.398-90.159c3.217-8.767,10.192-51.987,31.864-62.447
	c3.318-1.602,20.848-16.513,38.709-5.158c27.039,17.19,30.334,41.354,23.66,54.29c-6.567,12.728-32.024,24.799-49.365,17.472
	c0,0-28.291-14.831-10.148-35.885c18.142-21.055,35.034-7.869,35.034-7.869s11.674,19.474-11.78,24.389"/>
</svg>
