<?xml version="1.0" encoding="utf-8"?>
<!-- Generator: Adobe Illustrator 24.3.0, SVG Export Plug-In . SVG Version: 6.00 Build 0)  -->
<svg version="1.1" id="katman_1" xmlns="http://www.w3.org/2000/svg" xmlns:xlink="http://www.w3.org/1999/xlink" x="0px" y="0px"
	 viewBox="0 0 1200 800" style="enable-background:new 0 0 1200 800;" xml:space="preserve">
<style type="text/css">
	.st0{fill:#010202;}
	.st1{fill:none;stroke:#FFFFFF;stroke-width:40;stroke-linecap:round;stroke-linejoin:round;stroke-miterlimit:10;}
</style>
<circle class="st0" cx="600" cy="400" r="370"/>
<g>
	<g>
		<g>
			<g>
				<path class="st1" d="M242.6,495.8c123.4,33,260.6,1,357.4-95.8"/>
			</g>
		</g>
		<g>
			<line class="st1" x1="600" y1="400" x2="600" y2="400"/>
		</g>
		<g>
			<line class="st1" x1="600" y1="400" x2="600" y2="400"/>
		</g>
	</g>
	<path class="st1" d="M526.5,457.3c2.3,3,4.9,5.9,7.6,8.6c36.1,36.1,95.2,35.7,131.4-0.4C747.8,383.1,869,363.3,970,406.1"/>
	<path class="st1" d="M440.1,494.5c7.8,13.1,17.3,25.5,28.6,36.8c72.2,72.2,189.9,71.8,262.2-0.4c61-61,153.9-70.5,224.8-28.6"/>
	<path class="st1" d="M796.3,596.3c33.4-33.4,85.9-35.9,122.1-7.7"/>
	<path class="st1" d="M796.3,596.3c-108.4,108.4-284.6,108.8-393,0.4c-26.1-26.1-45.8-56-59.4-87.9"/>
	<line class="st1" x1="600" y1="400" x2="600" y2="400"/>
	<g>
		<path class="st1" d="M673,343.2c-2.3-3-4.9-5.9-7.6-8.6c-36.1-36.1-94.7-36.1-130.8,0c-82.3,82.3-203.5,102.1-304.5,59.3"/>
		<path class="st1" d="M759.4,306c-7.8-13.1-17.3-25.5-28.6-36.8c-72.2-72.2-189.4-72.2-261.6,0c-61,61-153.9,70.5-224.8,28.6"/>
		<path class="st1" d="M855.6,291.7c-13.5-31.9-33.3-61.8-59.4-87.9c-108.4-108.4-284.1-108.4-392.4,0
			c-33.4,33.4-85.9,35.9-122.2,7.6"/>
		<path class="st1" d="M957.5,304.2L957.5,304.2c-123.5-32.9-260.6-1-357.5,95.8"/>
	</g>
</g>
<circle class="st1" cx="600" cy="400" r="370"/>
</svg>
