<svg width="23" height="24" viewBox="0 0 23 24" fill="none" xmlns="http://www.w3.org/2000/svg">
<path d="M16.1563 17.3438C15.9271 17.0729 15.8125 16.7654 15.8125 16.4213C15.8125 16.0771 15.9271 15.7908 16.1563 15.5625L18.4688 13.25H9.5C9.14584 13.25 8.84875 13.13 8.60875 12.89C8.36875 12.65 8.24917 12.3533 8.25 12C8.25 11.6458 8.37 11.3488 8.61 11.1088C8.85 10.8688 9.14667 10.7492 9.5 10.75H18.4688L16.1563 8.4375C15.9063 8.1875 15.7813 7.89042 15.7813 7.54625C15.7813 7.20209 15.9063 6.90542 16.1563 6.65625C16.3854 6.40625 16.6721 6.28125 17.0163 6.28125C17.3604 6.28125 17.6467 6.39584 17.875 6.625L22.375 11.125C22.5 11.25 22.5888 11.3854 22.6413 11.5313C22.6938 11.6771 22.7196 11.8333 22.7188 12C22.7188 12.1667 22.6929 12.3229 22.6413 12.4688C22.5896 12.6146 22.5008 12.75 22.375 12.875L17.875 17.375C17.6042 17.6458 17.3071 17.7658 16.9838 17.735C16.6604 17.7042 16.3846 17.5738 16.1563 17.3438ZM3.25 23.25C2.5625 23.25 1.97375 23.0054 1.48375 22.5163C0.993752 22.0271 0.749169 21.4383 0.750002 20.75V3.25C0.750002 2.5625 0.995002 1.97375 1.485 1.48375C1.975 0.993752 2.56334 0.749169 3.25 0.750002H10.75C11.1042 0.750002 11.4013 0.870002 11.6413 1.11C11.8813 1.35 12.0008 1.64667 12 2C12 2.35417 11.88 2.65125 11.64 2.89125C11.4 3.13125 11.1033 3.25084 10.75 3.25H3.25V20.75H10.75C11.1042 20.75 11.4013 20.87 11.6413 21.11C11.8813 21.35 12.0008 21.6467 12 22C12 22.3542 11.88 22.6513 11.64 22.8913C11.4 23.1313 11.1033 23.2508 10.75 23.25H3.25Z" fill="#0A81FF"/>
</svg>
