<svg width="23" height="23" viewBox="0 0 23 23" fill="none" xmlns="http://www.w3.org/2000/svg">
<path d="M22.0575 13.7253C21.9778 13.4638 21.8155 13.2351 21.5949 13.0735C21.3744 12.9119 21.1074 12.8261 20.834 12.8288C20.7155 12.8327 20.5983 12.854 20.486 12.8921C19.0486 13.2866 17.5324 13.2934 16.0916 12.9116C14.6508 12.5298 13.3369 11.7732 12.2835 10.7187C11.2301 9.66424 10.4748 8.34951 10.0945 6.90833C9.71418 5.46715 9.72244 3.95095 10.1184 2.51399C10.1428 2.41731 10.1569 2.31833 10.1606 2.21868C10.1753 1.9546 10.107 1.69253 9.96508 1.46931C9.8232 1.24609 9.61495 1.07293 9.36959 0.974151C9.10359 0.871014 8.81145 0.856222 8.53639 0.931963C6.6937 1.45035 5.01875 2.44195 3.67801 3.8082C2.33727 5.17445 1.37742 6.86779 0.89385 8.71992C0.410281 10.5721 0.419832 12.5185 0.921554 14.3658C1.42328 16.2131 2.3997 17.8969 3.75378 19.2499C5.10787 20.603 6.79246 21.5781 8.64015 22.0784C10.4878 22.5786 12.4343 22.5867 14.286 22.1017C16.1378 21.6166 17.8304 20.6555 19.1956 19.3137C20.5608 17.9719 21.5511 16.2961 22.068 14.4531C22.1329 14.2143 22.1292 13.9621 22.0575 13.7253ZM11.5001 19.9374C9.63959 19.9399 7.83048 19.3273 6.35419 18.1951C4.8779 17.0629 3.81722 15.4745 3.33718 13.677C2.85713 11.8796 2.98463 9.97382 3.69985 8.25632C4.41507 6.53882 5.6779 5.10586 7.29186 4.1804C7.21473 5.71462 7.46011 7.24796 8.01214 8.6815C8.56418 10.115 9.41062 11.4169 10.4968 12.5031C11.5831 13.5894 12.885 14.4358 14.3185 14.9878C15.752 15.5399 17.2854 15.7853 18.8196 15.7081C18.0761 16.9917 17.0088 18.0578 15.7244 18.7999C14.44 19.5421 12.9834 19.9343 11.5001 19.9374Z" fill="#0A81FF"/>
</svg>
