<svg width="19" height="20" viewBox="0 0 19 20" fill="none" xmlns="http://www.w3.org/2000/svg">
<path d="M18.7437 13.5105C17.919 12.1283 17.481 10.1442 17.481 7.77691C17.481 5.71434 16.6402 3.73626 15.1435 2.2778C13.6468 0.819351 11.6169 0 9.50024 0C7.3836 0 5.35365 0.819351 3.85696 2.2778C2.36027 3.73626 1.51944 5.71434 1.51944 7.77691C1.51944 10.1452 1.08334 12.1283 0.25866 13.5105C0.0903806 13.7925 0.00117898 14.1126 1.1607e-05 14.4387C-0.00115576 14.7649 0.0857523 15.0856 0.25201 15.3687C0.417215 15.6519 0.657001 15.887 0.946613 16.0498C1.23622 16.2125 1.56517 16.297 1.89948 16.2945H5.33692C5.4312 17.307 5.9106 18.2485 6.68095 18.9342C7.45131 19.6198 8.45692 20 9.50024 20C10.5436 20 11.5492 19.6198 12.3195 18.9342C13.0899 18.2485 13.5693 17.307 13.6636 16.2945H17.101C17.4348 16.2965 17.7632 16.2118 18.0523 16.0491C18.3413 15.8863 18.5807 15.6515 18.7456 15.3687C18.9126 15.086 19.0003 14.7655 19 14.4393C18.9997 14.1132 18.9113 13.7929 18.7437 13.5105ZM9.50024 17.7758C9.06219 17.7759 8.63756 17.6285 8.29822 17.3585C7.95888 17.0886 7.72567 16.7127 7.63806 16.2945H11.3624C11.2748 16.7127 11.0416 17.0886 10.7023 17.3585C10.3629 17.6285 9.9383 17.7759 9.50024 17.7758ZM2.53224 14.0725C3.37307 12.406 3.79967 10.2896 3.79967 7.77691C3.79967 6.30365 4.40026 4.89073 5.46933 3.84898C6.53839 2.80722 7.98836 2.22197 9.50024 2.22197C11.0121 2.22197 12.4621 2.80722 13.5312 3.84898C14.6002 4.89073 15.2008 6.30365 15.2008 7.77691C15.2008 10.2887 15.6265 12.406 16.4673 14.0725H2.53224Z" fill="#0A81FF"/>
</svg>
