<svg width="22" height="22" viewBox="0 0 22 22" fill="none" xmlns="http://www.w3.org/2000/svg">
<path d="M11 19C8.76667 19 6.875 18.225 5.325 16.675C3.775 15.125 3 13.2333 3 11C3 8.76667 3.775 6.875 5.325 5.325C6.875 3.775 8.76667 3 11 3C13.2333 3 15.125 3.775 16.675 5.325C18.225 6.875 19 8.76667 19 11C19 13.2333 18.225 15.125 16.675 16.675C15.125 18.225 13.2333 19 11 19ZM11 17C12.6667 17 14.0833 16.4167 15.25 15.25C16.4167 14.0833 17 12.6667 17 11C17 10.7167 16.979 10.4377 16.937 10.163C16.895 9.88833 16.8327 9.61733 16.75 9.35C16.5 9.4 16.25 9.43767 16 9.463C15.75 9.48833 15.5 9.50067 15.25 9.5C14.2 9.5 13.2 9.3 12.25 8.9C11.3 8.5 10.45 7.91667 9.7 7.15C9.23334 8.1 8.59167 8.925 7.775 9.625C6.95833 10.325 6.03334 10.8333 5 11.15C5.05 12.7833 5.654 14.1667 6.812 15.3C7.97 16.4333 9.366 17 11 17ZM8.5 13C8.21667 13 7.979 12.9043 7.787 12.713C7.595 12.5217 7.49934 12.284 7.5 12C7.5 11.7167 7.596 11.479 7.788 11.287C7.98 11.095 8.21734 10.9993 8.5 11C8.78334 11 9.021 11.096 9.213 11.288C9.405 11.48 9.50067 11.7173 9.5 12C9.5 12.2833 9.404 12.521 9.212 12.713C9.02 12.905 8.78267 13.0007 8.5 13ZM13.5 13C13.2167 13 12.979 12.9043 12.787 12.713C12.595 12.5217 12.4993 12.284 12.5 12C12.5 11.7167 12.596 11.479 12.788 11.287C12.98 11.095 13.2173 10.9993 13.5 11C13.7833 11 14.021 11.096 14.213 11.288C14.405 11.48 14.5007 11.7173 14.5 12C14.5 12.2833 14.404 12.521 14.212 12.713C14.02 12.905 13.7827 13.0007 13.5 13ZM1.69779e-06 5V2C1.69779e-06 1.45 0.196002 0.979002 0.588002 0.587002C0.980002 0.195002 1.45067 -0.000664969 2 1.69779e-06H5V2H2V5H1.69779e-06ZM5 22H2C1.45 22 0.979002 21.8043 0.587002 21.413C0.195002 21.0217 -0.000664969 20.5507 1.69779e-06 20V17H2V20H5V22ZM17 22V20H20V17H22V20C22 20.55 21.804 21.021 21.412 21.413C21.02 21.805 20.5493 22.0007 20 22H17ZM20 5V2H17V1.69779e-06H20C20.55 1.69779e-06 21.021 0.196001 21.413 0.588001C21.805 0.980001 22.0007 1.45067 22 2V5H20Z" fill="#0A81FF"/>
</svg>
