<svg width="19" height="19" viewBox="0 0 19 19" fill="none" xmlns="http://www.w3.org/2000/svg">
<path d="M12.625 18.875H10.5417V16.7917H12.625V18.875ZM10.5417 11.5833H8.45833V16.7917H10.5417V11.5833ZM18.875 9.5H16.7917V13.6667H18.875V9.5ZM16.7917 7.41667H14.7083V9.5H16.7917V7.41667ZM4.29167 9.5H2.20833V11.5833H4.29167V9.5ZM2.20833 7.41667H0.125V9.5H2.20833V7.41667ZM9.5 2.20833H11.5833V0.125H9.5V2.20833ZM1.6875 1.6875V4.8125H4.8125V1.6875H1.6875ZM6.375 6.375H0.125V0.125H6.375V6.375ZM1.6875 14.1875V17.3125H4.8125V14.1875H1.6875ZM6.375 18.875H0.125V12.625H6.375V18.875ZM14.1875 1.6875V4.8125H17.3125V1.6875H14.1875ZM18.875 6.375H12.625V0.125H18.875V6.375ZM16.7917 16.7917V13.6667H12.625V15.75H14.7083V18.875H18.875V16.7917H16.7917ZM14.7083 9.5H10.5417V11.5833H14.7083V9.5ZM10.5417 7.41667H4.29167V9.5H6.375V11.5833H8.45833V9.5H10.5417V7.41667ZM11.5833 6.375V4.29167H9.5V2.20833H7.41667V6.375H11.5833ZM4.03125 2.46875H2.46875V4.03125H4.03125V2.46875ZM4.03125 14.9687H2.46875V16.5312H4.03125V14.9687ZM16.5312 2.46875H14.9687V4.03125H16.5312V2.46875Z" fill="white"/>
</svg>
