<svg width="20" height="20" viewBox="0 0 20 20" fill="none" xmlns="http://www.w3.org/2000/svg">
<path d="M14.5833 19.1668V17.3335H17.3333V14.5835H19.1667V17.7918C19.1667 18.1585 18.9833 18.4335 18.7083 18.7085C18.4333 18.9835 18.0667 19.1668 17.7917 19.1668H14.5833ZM5.41668 19.1668H2.20834C1.84168 19.1668 1.56668 18.9835 1.29168 18.7085C1.01668 18.4335 0.833344 18.0668 0.833344 17.7918V14.5835H2.66668V17.3335H5.41668V19.1668ZM14.5833 0.833496H17.7917C18.1583 0.833496 18.4333 1.01683 18.7083 1.29183C18.9833 1.56683 19.1667 1.84183 19.1667 2.2085V5.41683H17.3333V2.66683H14.5833V0.833496ZM5.41668 0.833496V2.66683H2.66668V5.41683H0.833344V2.2085C0.833344 1.84183 1.01668 1.56683 1.29168 1.29183C1.56668 1.01683 1.84168 0.833496 2.20834 0.833496H5.41668ZM16.4167 9.0835H3.58334V10.9168H16.4167V9.0835Z" fill="white"/>
</svg>
