<svg width="20" height="22" viewBox="0 0 20 22" fill="none" xmlns="http://www.w3.org/2000/svg">
<path d="M6.36364 19.6904H2.72727C2.48617 19.6904 2.25494 19.5915 2.08445 19.4153C1.91396 19.2392 1.81818 19.0003 1.81818 18.7512V14.9943C1.81818 14.7452 1.7224 14.5063 1.55192 14.3301C1.38143 14.154 1.1502 14.055 0.909091 14.055C0.667985 14.055 0.436754 14.154 0.266267 14.3301C0.0957789 14.5063 0 14.7452 0 14.9943V18.7512C0 19.4985 0.287337 20.2152 0.7988 20.7436C1.31026 21.272 2.00396 21.5689 2.72727 21.5689H6.36364C6.60474 21.5689 6.83597 21.4699 7.00646 21.2938C7.17695 21.1177 7.27273 20.8788 7.27273 20.6297C7.27273 20.3806 7.17695 20.1417 7.00646 19.9655C6.83597 19.7894 6.60474 19.6904 6.36364 19.6904ZM19.0909 14.055C18.8498 14.055 18.6186 14.154 18.4481 14.3301C18.2776 14.5063 18.1818 14.7452 18.1818 14.9943V18.7512C18.1818 19.0003 18.086 19.2392 17.9156 19.4153C17.7451 19.5915 17.5138 19.6904 17.2727 19.6904H13.6364C13.3953 19.6904 13.164 19.7894 12.9935 19.9655C12.8231 20.1417 12.7273 20.3806 12.7273 20.6297C12.7273 20.8788 12.8231 21.1177 12.9935 21.2938C13.164 21.4699 13.3953 21.5689 13.6364 21.5689H17.2727C17.996 21.5689 18.6897 21.272 19.2012 20.7436C19.7127 20.2152 20 19.4985 20 18.7512V14.9943C20 14.7452 19.9042 14.5063 19.7337 14.3301C19.5632 14.154 19.332 14.055 19.0909 14.055ZM17.2727 0.905762H13.6364C13.3953 0.905762 13.164 1.00472 12.9935 1.18086C12.8231 1.357 12.7273 1.59589 12.7273 1.84499C12.7273 2.09409 12.8231 2.33299 12.9935 2.50913C13.164 2.68527 13.3953 2.78423 13.6364 2.78423H17.2727C17.5138 2.78423 17.7451 2.88318 17.9156 3.05932C18.086 3.23546 18.1818 3.47436 18.1818 3.72346V7.48039C18.1818 7.72949 18.2776 7.96839 18.4481 8.14453C18.6186 8.32067 18.8498 8.41963 19.0909 8.41963C19.332 8.41963 19.5632 8.32067 19.7337 8.14453C19.9042 7.96839 20 7.72949 20 7.48039V3.72346C20 2.97616 19.7127 2.25947 19.2012 1.73105C18.6897 1.20263 17.996 0.905762 17.2727 0.905762ZM0.909091 8.41963C1.1502 8.41963 1.38143 8.32067 1.55192 8.14453C1.7224 7.96839 1.81818 7.72949 1.81818 7.48039V3.72346C1.81818 3.47436 1.91396 3.23546 2.08445 3.05932C2.25494 2.88318 2.48617 2.78423 2.72727 2.78423H6.36364C6.60474 2.78423 6.83597 2.68527 7.00646 2.50913C7.17695 2.33299 7.27273 2.09409 7.27273 1.84499C7.27273 1.59589 7.17695 1.357 7.00646 1.18086C6.83597 1.00472 6.60474 0.905762 6.36364 0.905762H2.72727C2.00396 0.905762 1.31026 1.20263 0.7988 1.73105C0.287337 2.25947 0 2.97616 0 3.72346V7.48039C0 7.72949 0.0957789 7.96839 0.266267 8.14453C0.436754 8.32067 0.667985 8.41963 0.909091 8.41963ZM8.18182 4.66269H4.54545C4.30435 4.66269 4.07312 4.76165 3.90263 4.93779C3.73214 5.11393 3.63636 5.35283 3.63636 5.60193V9.35886C3.63636 9.60796 3.73214 9.84686 3.90263 10.023C4.07312 10.1991 4.30435 10.2981 4.54545 10.2981H8.18182C8.42292 10.2981 8.65415 10.1991 8.82464 10.023C8.99513 9.84686 9.09091 9.60796 9.09091 9.35886V5.60193C9.09091 5.35283 8.99513 5.11393 8.82464 4.93779C8.65415 4.76165 8.42292 4.66269 8.18182 4.66269ZM7.27273 8.41963H5.45455V6.54116H7.27273V8.41963ZM11.8182 10.2981H15.4545C15.6957 10.2981 15.9269 10.1991 16.0974 10.023C16.2679 9.84686 16.3636 9.60796 16.3636 9.35886V5.60193C16.3636 5.35283 16.2679 5.11393 16.0974 4.93779C15.9269 4.76165 15.6957 4.66269 15.4545 4.66269H11.8182C11.5771 4.66269 11.3458 4.76165 11.1754 4.93779C11.0049 5.11393 10.9091 5.35283 10.9091 5.60193V9.35886C10.9091 9.60796 11.0049 9.84686 11.1754 10.023C11.3458 10.1991 11.5771 10.2981 11.8182 10.2981ZM12.7273 6.54116H14.5455V8.41963H12.7273V6.54116ZM8.18182 12.1766H4.54545C4.30435 12.1766 4.07312 12.2755 3.90263 12.4517C3.73214 12.6278 3.63636 12.8667 3.63636 13.1158V16.8727C3.63636 17.1218 3.73214 17.3607 3.90263 17.5369C4.07312 17.713 4.30435 17.812 4.54545 17.812H8.18182C8.42292 17.812 8.65415 17.713 8.82464 17.5369C8.99513 17.3607 9.09091 17.1218 9.09091 16.8727V13.1158C9.09091 12.8667 8.99513 12.6278 8.82464 12.4517C8.65415 12.2755 8.42292 12.1766 8.18182 12.1766ZM7.27273 15.9335H5.45455V14.055H7.27273V15.9335ZM11.8182 14.9943C12.0593 14.9943 12.2905 14.8953 12.461 14.7192C12.6315 14.543 12.7273 14.3041 12.7273 14.055C12.9684 14.055 13.1996 13.9561 13.3701 13.7799C13.5406 13.6038 13.6364 13.3649 13.6364 13.1158C13.6364 12.8667 13.5406 12.6278 13.3701 12.4517C13.1996 12.2755 12.9684 12.1766 12.7273 12.1766H11.8182C11.5771 12.1766 11.3458 12.2755 11.1754 12.4517C11.0049 12.6278 10.9091 12.8667 10.9091 13.1158V14.055C10.9091 14.3041 11.0049 14.543 11.1754 14.7192C11.3458 14.8953 11.5771 14.9943 11.8182 14.9943ZM15.4545 12.1766C15.2134 12.1766 14.9822 12.2755 14.8117 12.4517C14.6412 12.6278 14.5455 12.8667 14.5455 13.1158V15.9335C14.3043 15.9335 14.0731 16.0324 13.9026 16.2086C13.7321 16.3847 13.6364 16.6236 13.6364 16.8727C13.6364 17.1218 13.7321 17.3607 13.9026 17.5369C14.0731 17.713 14.3043 17.812 14.5455 17.812H15.4545C15.6957 17.812 15.9269 17.713 16.0974 17.5369C16.2679 17.3607 16.3636 17.1218 16.3636 16.8727V13.1158C16.3636 12.8667 16.2679 12.6278 16.0974 12.4517C15.9269 12.2755 15.6957 12.1766 15.4545 12.1766ZM11.8182 15.9335C11.6384 15.9335 11.4626 15.9886 11.3131 16.0918C11.1636 16.195 11.0471 16.3417 10.9783 16.5133C10.9095 16.6849 10.8915 16.8738 10.9266 17.056C10.9616 17.2382 11.0482 17.4055 11.1754 17.5369C11.3025 17.6682 11.4645 17.7577 11.6408 17.7939C11.8172 17.8302 12 17.8116 12.1661 17.7405C12.3322 17.6694 12.4742 17.549 12.5741 17.3945C12.674 17.2401 12.7273 17.0585 12.7273 16.8727C12.7273 16.6236 12.6315 16.3847 12.461 16.2086C12.2905 16.0324 12.0593 15.9335 11.8182 15.9335Z" fill="#9A9FA5"/>
</svg>
