<svg width="22" height="24" viewBox="0 0 22 24" fill="none" xmlns="http://www.w3.org/2000/svg">
<path d="M11.819 0.561055L19.9857 3.62355C20.4305 3.79031 20.8139 4.08889 21.0845 4.47937C21.3551 4.86985 21.5001 5.33364 21.5 5.80872V12.0656C21.5 14.0156 20.9571 15.927 19.9319 17.5858C18.9068 19.2446 17.44 20.5851 15.6958 21.4572L11.7828 23.4137C11.5398 23.5353 11.2718 23.5986 11 23.5986C10.7282 23.5986 10.4602 23.5353 10.2172 23.4137L6.30417 21.4572C4.56004 20.5851 3.09323 19.2446 2.06808 17.5858C1.04293 15.927 0.499958 14.0156 0.5 12.0656V5.80872C0.499941 5.33364 0.644904 4.86985 0.915512 4.47937C1.18612 4.08889 1.56948 3.79031 2.01433 3.62355L10.181 0.561055C10.7091 0.363112 11.2909 0.363112 11.819 0.561055ZM11 2.74622L2.83333 5.80872V12.0656C2.8336 13.5821 3.25612 15.0685 4.05357 16.3585C4.85101 17.6484 5.99187 18.6908 7.34833 19.3689L11 21.1971L14.6517 19.3712C16.0085 18.6929 17.1496 17.6502 17.947 16.3598C18.7445 15.0694 19.1668 13.5825 19.1667 12.0656V5.80872L11 2.74622ZM11 7.33355C11.498 7.33335 11.983 7.49249 12.3841 7.78769C12.7852 8.0829 13.0813 8.49869 13.2291 8.97425C13.3769 9.44981 13.3687 9.9602 13.2057 10.4308C13.0427 10.9013 12.7334 11.3074 12.323 11.5896L12.1667 11.6887V15.5002C12.1663 15.7976 12.0525 16.0836 11.8483 16.2998C11.6442 16.516 11.3652 16.6462 11.0684 16.6636C10.7715 16.681 10.4792 16.5844 10.2512 16.3936C10.0232 16.2027 9.87662 15.932 9.8415 15.6367L9.83333 15.5002V11.6887C9.38795 11.4321 9.03975 11.0357 8.84281 10.5609C8.64587 10.0861 8.61121 9.55961 8.74421 9.06312C8.87721 8.56662 9.17043 8.12794 9.57834 7.81519C9.98624 7.50244 10.486 7.33313 11 7.33355Z" fill="#0A81FF"/>
</svg>
