<svg width="20" height="20" viewBox="0 0 20 20" fill="none" xmlns="http://www.w3.org/2000/svg">
<path d="M13.8354 14.6146L13.4458 14.225C13.3083 14.0875 13.1439 14.0188 12.9527 14.0188C12.762 14.0188 12.5979 14.0875 12.4604 14.225C12.3229 14.3625 12.2542 14.5229 12.2542 14.7063C12.2542 14.8896 12.3229 15.05 12.4604 15.1875L13.3542 16.0813C13.4917 16.2188 13.6521 16.2875 13.8354 16.2875C14.0188 16.2875 14.1792 16.2188 14.3167 16.0813L16.5396 13.9042C16.6771 13.7667 16.7458 13.6023 16.7458 13.411C16.7458 13.2203 16.6771 13.0562 16.5396 12.9187C16.4021 12.7812 16.238 12.7125 16.0473 12.7125C15.8561 12.7125 15.6917 12.7812 15.5542 12.9187L13.8354 14.6146ZM4.41667 6.25H13.5833C13.8431 6.25 14.0606 6.162 14.236 5.986C14.412 5.81061 14.5 5.59306 14.5 5.33333C14.5 5.07361 14.412 4.85575 14.236 4.67975C14.0606 4.50436 13.8431 4.41667 13.5833 4.41667H4.41667C4.15694 4.41667 3.93908 4.50436 3.76308 4.67975C3.58769 4.85575 3.5 5.07361 3.5 5.33333C3.5 5.59306 3.58769 5.81061 3.76308 5.986C3.93908 6.162 4.15694 6.25 4.41667 6.25ZM14.5 19.0833C13.2319 19.0833 12.1512 18.6366 11.2578 17.7432C10.3637 16.8491 9.91667 15.7681 9.91667 14.5C9.91667 13.2319 10.3637 12.1509 11.2578 11.2568C12.1512 10.3634 13.2319 9.91667 14.5 9.91667C15.7681 9.91667 16.8491 10.3634 17.7432 11.2568C18.6366 12.1509 19.0833 13.2319 19.0833 14.5C19.0833 15.7681 18.6366 16.8491 17.7432 17.7432C16.8491 18.6366 15.7681 19.0833 14.5 19.0833ZM0.75 18.0521V2.58333C0.75 2.07917 0.929361 1.64742 1.28808 1.28808C1.64742 0.929361 2.07917 0.75 2.58333 0.75H15.4167C15.9208 0.75 16.3526 0.929361 16.7119 1.28808C17.0706 1.64742 17.25 2.07917 17.25 2.58333V8.70208C16.9597 8.56458 16.6618 8.45 16.3562 8.35833C16.0507 8.26667 15.7375 8.19792 15.4167 8.15208V2.58333H2.58333V15.4625H8.15208C8.22847 15.9361 8.34703 16.3868 8.50775 16.8146C8.66786 17.2424 8.87778 17.6472 9.1375 18.0292C9.06111 18.0444 8.98075 18.0328 8.89642 17.9943C8.81269 17.9564 8.74028 17.9069 8.67917 17.8458L7.94583 17.1125C7.85417 17.0208 7.74722 16.975 7.625 16.975C7.50278 16.975 7.39583 17.0208 7.30417 17.1125L6.57083 17.8458C6.47917 17.9375 6.37222 17.9833 6.25 17.9833C6.12778 17.9833 6.02083 17.9375 5.92917 17.8458L5.19583 17.1125C5.10417 17.0208 4.99722 16.975 4.875 16.975C4.75278 16.975 4.64583 17.0208 4.55417 17.1125L3.82083 17.8458C3.72917 17.9375 3.62222 17.9833 3.5 17.9833C3.37778 17.9833 3.27083 17.9375 3.17917 17.8458L2.44583 17.1125C2.35417 17.0208 2.24722 16.975 2.125 16.975C2.00278 16.975 1.89583 17.0208 1.80417 17.1125L1.07083 17.8458L0.75 18.0521ZM4.41667 13.5833H8.15208C8.19792 13.2625 8.26667 12.9493 8.35833 12.6438C8.45 12.3382 8.56458 12.0403 8.70208 11.75H4.41667C4.15694 11.75 3.93908 11.8377 3.76308 12.0131C3.58769 12.1891 3.5 12.4069 3.5 12.6667C3.5 12.9264 3.58769 13.1439 3.76308 13.3193C3.93908 13.4953 4.15694 13.5833 4.41667 13.5833ZM4.41667 9.91667H10.0083C10.5889 9.35139 11.2648 8.90436 12.036 8.57558C12.8078 8.24742 13.6292 8.08333 14.5 8.08333H4.41667C4.15694 8.08333 3.93908 8.17103 3.76308 8.34642C3.58769 8.52242 3.5 8.74028 3.5 9C3.5 9.25972 3.58769 9.47728 3.76308 9.65267C3.93908 9.82867 4.15694 9.91667 4.41667 9.91667Z" fill="white"/>
</svg>
